<svg role="img" aria-hidden="true" focusable="false" xmlns="http://www.w3.org/2000/svg" viewBox="0 0 500 500"><path fill="#38296d" d="M75.72 60c41.24 0 74.72 33.48 74.72 74.72v264.93H1V134.72C1 93.48 34.48 60 75.72 60Z"/><g fill="#796da2" data-name="rotation point"><path d="M72.97 111.62h149.47v58.81H72.97c-16.23 0-29.4-13.18-29.4-29.4 0-16.23 13.18-29.4 29.4-29.4Z"/><circle cx="75.72" cy="141.02" r="50.41"/></g><path fill="#fff" d="M95.27 126.87c4.49-.42 8.64 1.35 11.53 4.38-4.47-13.94-18.14-23.41-33.32-21.99-17.54 1.64-30.42 17.19-28.78 34.73 1.64 17.54 17.19 30.42 34.73 28.78 13.18-1.23 23.72-10.32 27.46-22.2-2.28 2.44-5.39 4.13-8.98 4.47-7.78.73-14.67-4.99-15.4-12.77-.73-7.78 4.99-14.67 12.77-15.4Z"/><path fill="#38296d" d="M168.29 80.81h303.99c14.75 0 26.72 11.97 26.72 26.72v66.81c0 14.75-11.97 26.72-26.72 26.72H168.29V80.8Z"/><path fill="#faa310" d="M189.61 100.43h288.06v80.17H189.61z"/><g fill="#38296d" fill-rule="evenodd"><path d="m213.2 181.48-36.12-.25 62.26-83.44 36.12.25-62.26 83.44zM285.43 181.48l-36.11-.25 62.26-83.44 36.12.25-62.27 83.44zM357.67 181.48l-36.12-.25 62.27-83.44 36.12.25-62.27 83.44zM429.91 181.48l-36.12-.25 62.27-83.44 36.11.25-62.26 83.44z"/></g></svg>